<svg width="259" height="252" viewBox="0 0 259 252" fill="none" xmlns="http://www.w3.org/2000/svg">
<path d="M70.889 0.938532C71.0767 6.11862 70.317 11.2515 69.9591 16.401C69.7243 20.4579 70.123 24.5236 70.512 28.559C70.793 30.8202 70.831 33.1066 71.3089 35.3371C71.8754 37.9372 72.5191 40.5199 73.2862 43.0689C73.8193 44.8999 74.3865 46.7446 75.3846 48.3805C75.9896 49.4321 76.6158 50.4966 77.3533 51.4698C78.5817 55.4387 79.9403 59.3676 81.489 63.2281C81.5584 63.3834 81.6224 63.541 81.6917 63.6962C81.6727 63.7325 81.6636 63.7772 81.6635 63.8211C81.7988 64.2928 81.9213 64.7638 82.0582 65.2318C82.5018 66.772 83.0968 68.2633 83.5957 69.7863C83.8199 70.4739 84.0495 71.1593 84.279 71.8446C84.481 72.6858 84.6762 73.5331 84.8388 74.3848C86.0345 81.6133 86.3846 88.9453 86.5796 96.2589C86.8891 101.071 86.8913 105.904 87.415 110.696C88.5961 117.655 90.2972 124.555 92.5247 131.25C93.3534 133.635 94.3821 135.938 95.2836 138.295C96.3168 140.99 97.0615 143.78 97.9827 146.514C98.8755 149.035 99.9253 151.012 100.134 153.442C100.223 154.554 100.239 155.672 100.34 156.784C100.419 157.189 100.389 157.656 100.72 157.948C100.984 158.133 101.301 158.207 101.616 158.255C102.384 158.322 103.362 158.228 103.724 157.447C105.519 154.624 105.778 151.161 106.53 147.971C107.856 140.654 107.981 133.091 106.306 125.819C105.518 121.882 104.399 118.024 103.39 114.143C102.435 110.464 101.431 106.779 99.8947 103.292C97.2133 97.3334 94.3469 91.4625 91.5723 85.5495C91.3522 85.07 91.1412 84.5897 90.9226 84.1065C90.685 83.3212 90.442 82.5382 90.199 81.7552C93.6878 87.8588 97.9418 93.4795 102.397 98.9174C106.76 103.809 111.191 108.332 115.174 112.838C117.708 115.689 119.891 118.847 122.542 121.604C125.7 124.785 128.515 128.532 130.732 132.938C132.079 135.715 133.626 138.402 134.859 141.235C133.901 141.562 133.072 142.247 132.68 143.201C131.548 145.381 131.449 148.773 132.917 150.813C133.255 151.23 133.751 151.46 134.154 151.802C134.728 152.437 135.411 152.989 135.882 153.709C135.952 153.83 136.017 153.953 136.076 154.078C132.976 153.059 129.845 153.886 123.896 155.386C117.33 157.217 111.238 160.588 106.105 165.06C105.063 166.046 104.051 167.076 103.179 168.219C103.06 168.404 102.824 168.599 102.967 168.832C103.052 168.949 103.161 169.037 103.301 169.094C105.611 169.816 107.672 168.036 109.458 166.817C111.314 165.521 113.007 164.405 114.878 163.378C120.864 160.106 129.232 157.137 136.007 157.494C138.085 157.71 140.094 158.33 142.158 158.637C139.469 159.053 136.83 159.815 134.25 160.671C127.579 162.872 121.021 166.802 117.437 173.026C114.922 177.457 113.825 182.468 113.11 187.465C112.39 191.059 112.177 194.712 112.411 198.368C112.533 201.954 112.845 205.545 113.601 209.061C114.117 211.482 114.962 213.825 115.941 216.099C116.473 217.126 116.849 218.406 117.925 218.988C121.099 220.291 122.187 217.302 123.649 215.175C125.787 211.946 128.162 208.859 129.995 205.436C130.187 205.057 130.377 204.672 130.567 204.287C129.709 211.173 131.48 215.703 134.824 222.113C136.03 224.456 137.371 226.735 138.795 228.95C139.823 230.555 140.826 232.245 142.321 233.466C143.028 233.913 143.973 233.924 144.74 233.621C145.188 233.437 145.308 232.919 145.537 232.536C147.454 229.002 147.816 224.935 148.156 221C148.66 216.045 148.889 211.16 148.562 206.218C149.057 207.094 149.657 207.919 150.204 208.754C151.397 210.701 152.571 212.698 154.303 214.225C155.761 215.646 157.464 216.774 159.275 217.7C160.621 218.448 161.581 218.782 162.665 219.67C163.691 220.461 165.388 222.127 165.736 222.509C166.446 223.265 166.448 223.533 167.094 223.916C167.863 224.199 168.812 224.242 169.519 223.784C169.691 223.673 169.718 223.487 169.748 223.301C169.834 221.908 170.174 221.412 170.464 220.277C171.268 217.71 172.795 215.442 173.662 212.904C174.093 211.69 174.336 210.421 174.397 209.132C174.49 207.623 174.666 206.104 174.582 204.599C174.834 204.551 175.08 204.465 175.29 204.334C175.601 204.13 175.394 203.761 175.336 203.478C174.218 200.239 172.843 197.094 171.512 193.937C171.851 194.297 172.196 194.651 172.544 194.997C173.976 196.373 175.552 197.644 177.349 198.507C180.876 200.079 184.732 200.804 188.557 201.2C190.294 201.381 191.62 201.677 193.312 202.625C194.144 203.026 194.756 203.645 195.75 204.067C196.235 204.249 196.769 204.253 197.281 204.204C196.775 204.273 198.02 204.168 198.239 203.909C198.552 203.643 198.464 203.129 198.456 202.757C198.335 201.759 198.175 200.768 197.998 199.779C197.032 194.852 195.725 189.899 193.442 185.405C192.029 182.846 190.246 180.552 188.324 178.373C188.924 178.782 189.547 179.155 190.202 179.471C190.843 179.734 191.496 179.715 192.131 179.971C193.216 180.354 194.754 180.942 196.101 181.405C197.976 182.194 199.889 182.889 201.734 183.74C204.645 185.272 207.564 186.841 210.692 187.888C211.034 188.118 214.372 188.775 213.912 186.587C213.281 184.269 212.425 181.996 211.339 179.846C209.549 176.978 207.734 174.108 205.857 171.293C204.24 168.969 202.207 166.956 200.06 165.118C197.117 162.638 193.729 160.74 190.258 159.102C186.966 157.523 183.558 156.222 179.974 155.466C183.175 156.42 186.175 157.851 189.07 159.512C194.038 162.199 198.538 165.832 201.699 169.845C204.134 173.109 206.197 176.64 208.448 180.032C209.298 181.634 209.984 183.325 210.593 185.032C210.801 185.749 211.006 186.081 211.1 186.524C210.305 186.217 209.411 185.84 208.586 185.49C206.784 184.682 205.025 183.781 203.243 182.937C200.594 181.876 197.909 180.897 195.171 180.091C193.849 179.686 192.536 179.193 191.157 179.073C189.931 178.637 188.793 177.96 187.714 177.236C187.323 176.974 186.935 176.703 186.549 176.429C185.538 175.351 184.51 174.291 183.482 173.232C184.115 173.241 184.748 173.25 185.385 173.251C186.502 173.248 188.105 173.51 189.632 173.799C191.029 174.159 196.083 175.366 197.002 173.921C197.104 173.668 196.84 173.474 196.621 173.364C196.602 173.334 196.225 173.059 196.18 172.984C195.889 172.714 195.617 172.42 195.334 172.139C193.647 170.534 192.691 169.187 191.062 167.152C188.569 164.164 186.173 161.079 183.391 158.352C181.386 156.597 178.933 155.421 176.558 154.251C173.134 152.671 169.497 151.437 165.745 151.022C165.94 150.973 166.133 150.919 166.329 150.87C170.174 149.719 174.133 149.181 178.133 148.98C182.266 148.49 186.782 148.676 191.399 148.5C186.771 148.299 182.128 147.85 177.504 148.371C175.319 148.538 173.122 148.748 170.978 149.217C169.094 149.685 167.263 150.328 165.437 150.99C164.748 150.924 164.053 150.882 163.354 150.873C160.747 150.834 158.248 151.389 155.867 152.307C157.343 151.465 158.834 150.663 160.375 149.934C163.462 148.026 166.852 146.358 170.399 145.918C174.16 145.761 178.248 145.472 182.118 145.013C179.52 145.083 176.923 145.216 174.326 145.252C172.125 145.25 169.893 145.121 167.737 145.664C164.666 146.375 161.798 147.849 159.234 149.659C157.315 150.671 155.489 151.87 153.788 153.215C151.454 154.345 149.243 155.789 147.176 157.312C152.092 154.461 158.407 151.519 163.428 151.966C167.595 152.288 171.042 153.679 174.98 155.575C177.622 156.901 179.989 158.126 181.996 160.444C183.849 162.446 186.81 165.983 189.035 168.718C190.147 170.246 191.458 171.608 192.817 172.914C192.9 172.992 192.982 173.073 193.063 173.154C191.595 172.906 189.658 172.391 187.937 172.191C186.131 171.93 184.302 172.011 182.483 172C179.252 171.799 176.994 171.853 174.227 171.513C172.123 171.273 170.308 170.728 168.057 170.068C166.555 169.662 165.212 169.407 163.915 168.754C162.165 167.94 160.619 166.804 159.037 165.689C157.57 164.62 156.03 163.654 154.557 162.587C152.719 161.312 150.843 160.166 148.963 159.041C152.344 158.793 155.597 158.516 158.994 158.415C161.524 158.426 164.396 159.344 167.016 160.301C168.064 160.723 169.056 161.258 170.082 161.723C169.804 161.541 169.531 161.357 169.259 161.168C166.359 159.194 162.905 157.844 159.39 157.616C155.705 157.592 152.044 158.119 148.4 158.705C147.733 158.309 147.07 157.915 146.405 157.516C146.829 157.849 147.415 158.282 148.058 158.756C147.645 158.823 147.235 158.891 146.822 158.958C146.703 158.892 146.587 158.832 146.468 158.767C146.307 158.491 146.118 158.24 145.85 158.088C146.112 157.697 146.36 157.3 146.605 156.898C148.05 155.458 149.584 154.112 151.227 152.888C153.013 151.537 154.763 150.115 156.669 148.935C161.489 146.345 166.529 144.146 171.552 142.516C177.689 140.407 183.585 138.767 189.647 138.987C191.083 139.117 194.213 139.756 196.056 140.198C196.974 140.484 198.298 141.364 199.405 142.117C201.306 143.277 203.022 144.678 204.698 146.139C205.58 146.959 207.192 147.954 208.029 148.603C207.875 148.647 207.718 148.689 207.561 148.718C206.879 148.852 205.078 148.993 204.011 149.232C201.311 149.863 198.711 150.909 196.214 152.105C193.609 153.403 190.88 154.608 187.968 154.956C184.276 155.123 180.655 154.462 176.999 154.094C179.016 154.418 181.01 154.877 183.023 155.225C184.662 155.476 186.319 155.528 187.972 155.613C193.365 155.44 198.008 152.295 202.988 150.837C204.619 150.298 205.881 150.133 207.613 149.965C208.442 149.881 209.269 149.725 210.069 149.485C210.405 149.37 210.814 149.345 211.055 149.064C211.587 148.549 209.951 147.636 209.612 147.32C207.859 146.207 206.44 144.678 204.825 143.387C202.614 141.839 200.351 139.993 197.808 139.054C196.639 138.684 195.425 138.556 194.609 138.369C193.211 138.088 191.811 137.766 190.382 137.661C184.239 137.348 178.125 138.689 172.337 140.661C166.124 142.599 160.056 145.202 154.63 148.818C152.095 150.86 149.625 153.026 147.461 155.458C147.963 154.593 148.461 153.726 148.99 152.88C152.561 146.971 155.59 140.752 158.994 134.746C161.675 130.438 164.898 126.498 167.775 122.318C168.187 121.741 168.609 121.173 169.031 120.604C169.292 120.02 168.107 119.776 167.713 119.763C166.766 119.671 165.916 120.156 165.239 120.78C164.544 121.308 163.841 121.821 163.143 122.344C160.161 124.615 157.318 127.073 154.934 129.985C152.375 132.821 149.986 135.889 148.229 139.285C146.456 144.261 144.957 149.417 144.529 154.688C144.436 153.913 144.336 153.134 144.24 152.358C143.957 149.775 143.625 147.05 142.061 144.887C140.701 143.18 138.931 141.441 136.691 141.08C136.136 140.997 135.56 141.043 135.021 141.203C134.392 138.802 133.463 136.492 132.648 134.148C131.672 131.409 130.555 128.693 128.971 126.242C127.312 123.496 125.035 121.228 123.088 118.696C119.535 113.898 114.314 108.204 110.76 104.544C104.713 98.1181 99.0517 91.2769 94.4487 83.7279C91.4297 78.9027 89.0798 73.714 86.7859 68.5171C84.9537 64.4547 83.2079 60.3524 81.4978 56.2381C81.9316 56.9178 82.3724 57.5914 82.8146 58.2613C85.1187 61.6744 87.4304 65.0906 90.0142 68.2999C93.1202 71.8818 95.8189 74.3686 98.9568 77.8711C102.118 81.3169 105.394 84.6599 108.953 87.6948C110.267 88.7856 111.695 89.7245 112.984 90.8448C114.866 92.4361 116.644 94.153 118.542 95.7247C123.356 99.5278 128.454 102.953 133.35 106.649C137.886 109.963 142.326 113.418 147.157 116.305C149.247 117.563 151.529 118.683 153.986 118.92C155.28 119.023 157.319 119.413 157.808 117.826C157.904 116.353 156.315 115.477 155.769 114.225C152.134 108.08 148.954 101.679 145.172 95.6156C144.305 94.1994 143.499 92.7417 142.562 91.3678C141.148 89.4458 139.497 87.7187 137.935 85.922C133.78 81.3119 128.758 77.5878 123.844 73.8367C120.215 71.0417 116.034 69.1621 112.053 66.9462C108.871 65.2357 105.773 63.3264 102.411 61.9873C100.737 61.3537 99.0019 60.9061 97.284 60.4261C95.4284 59.9609 93.6011 59.3489 91.6981 59.1107C89.3971 58.8793 87.2466 57.8255 85.2919 56.5692C84.8691 56.0258 84.4379 55.4921 83.9348 55.0174C83.0313 54.1181 81.9223 53.4568 80.9741 52.6142C80.3062 52.0029 79.6094 51.0813 78.9545 50.0447C78.5703 49.0994 78.1861 48.1542 77.8034 47.2052C77.0322 45.2344 76.2329 43.2788 75.4313 41.3178C75.3599 41.0695 75.284 40.8105 75.2035 40.5409C74.3569 37.2176 73.5458 33.8822 73.3881 30.4406C72.9309 26.4876 72.3799 22.5495 72.0135 18.5891C71.8198 15.7612 71.8631 12.9232 71.8737 10.0897C71.7456 7.03338 71.5311 3.97312 71.0094 0.956169C70.9706 0.637471 70.9319 0.318776 70.8931 7.76834e-05C70.9084 0.300567 70.8995 0.617657 70.889 0.938532ZM134.912 156.873C127.843 156.679 120.804 158.737 114.48 161.79C112.886 162.608 111.341 163.511 109.837 164.487C113.496 161.518 118.016 158.973 122.411 157.297C125.293 156.137 128.749 155.3 132.066 154.512C135.441 153.69 139.135 156.226 142.293 158.586C139.825 158.028 137.463 156.986 134.912 156.873ZM132.771 193.194C132.143 195.226 131.108 197.098 130.198 199.012C128.026 203.801 125.33 208.309 122.215 212.547C121.292 213.806 120.393 215.298 119.535 216.481C118.653 214.73 118.046 212.821 117.427 210.973C116.59 208.15 115.884 202.862 115.747 199.117C115.471 195.281 115.547 191.433 116.287 187.649C116.998 182.659 117.727 178.63 119.986 174.192C123.174 167.839 129.098 163.606 135.956 160.93C138.037 160.103 140.168 159.348 142.353 158.842C140.147 160.951 137.511 162.579 135.546 164.952C132.551 168.127 130.543 172.029 128.361 175.773C128.187 176.085 128.023 176.405 127.853 176.719C128.076 176.427 128.295 176.133 128.516 175.844C131.655 171.896 134.377 167.641 137.709 163.845C138.709 162.626 139.903 161.591 140.998 160.463C140.733 160.783 140.474 161.109 140.217 161.432C137.876 164.369 136.332 167.759 135.328 171.327C133.549 173.871 131.698 176.377 130.262 179.129C128.852 181.628 127.347 184.093 126.377 186.809C124.98 190.109 124.472 193.687 123.734 197.172C125.04 193.739 126.011 190.167 127.69 186.889C128.821 184.339 130.339 181.994 131.619 179.521C132.561 177.497 133.67 175.558 134.762 173.607C134.075 176.801 133.767 180.091 133.684 183.312C133.686 184.824 133.75 186.348 133.891 187.864C133.61 189.666 133.331 191.464 132.771 193.194ZM146.485 218.645C145.922 221.639 145.336 225.598 144.633 227.956C144.282 229.092 143.848 230.192 143.331 231.258C143.303 231.22 143.276 231.188 143.248 231.15C141.374 228.446 139.735 225.586 138.13 222.717C136.288 219.257 134.323 215.831 133.101 212.089C132.243 209.622 132.02 205.851 132.095 202.771C132.107 202.174 132.084 201.576 132.081 200.982C132.961 198.924 133.755 196.832 134.473 194.718C134.606 194.279 134.714 193.835 134.807 193.385C135.333 195.551 136.075 197.66 137.076 199.661C137.266 204.802 138.956 209.84 140.799 214.618C140.153 211.494 139.552 208.358 138.856 205.24C138.533 203.946 138.236 202.641 137.978 201.328C139.547 204.099 141.387 206.789 143.932 208.74C144.769 209.455 145.914 209.787 146.989 209.495C147.396 209.4 147.825 209.186 147.985 208.789C147.633 212.1 147.134 215.383 146.485 218.645ZM148.034 208.294C148.037 207.272 148.033 206.243 148.048 205.212C148.116 205.371 148.189 205.528 148.268 205.682C148.202 206.556 148.124 207.426 148.034 208.294ZM172.547 203.63C172.564 203.883 172.571 204.137 172.57 204.391C172.522 205.865 172.258 207.319 172.046 208.775C171.813 211.572 170.59 213.848 169.16 216.528C168.439 217.907 167.83 219.345 167.364 220.831C167.244 220.713 167.127 220.591 167.002 220.474C164.532 217.649 160.814 216.747 158.173 214.652C155.619 212.808 154.343 211.078 152.422 208.557C151.502 207.405 150.455 206.338 149.674 205.08C149.093 204.033 148.598 202.938 148.19 201.812C148.2 201.657 148.205 201.501 148.218 201.349C148.418 197.967 148.718 194.591 148.947 191.213C148.827 185.036 148.275 178.862 147.339 172.757C147.023 170.548 146.683 168.347 146.338 166.147C147.573 169.618 148.882 173.07 150.485 176.381C150.916 179.393 151.532 182.373 152.245 185.33C152.761 187.432 153.226 189.608 154.373 191.475C155.344 193.101 156.33 194.723 157.408 196.281C157.122 196.632 156.975 197.073 157.073 197.596C157.109 197.975 157.302 198.303 157.611 198.506C157.614 198.903 157.72 199.275 157.987 199.571C158.389 199.992 159.09 200.041 159.599 199.802C159.951 199.57 160.122 199.156 160.17 198.731C160.362 198.756 160.561 198.753 160.775 198.711C161.859 198.572 162.102 197.936 161.614 196.997C161.255 196.229 160.653 195.477 159.745 195.42C159.649 195.407 159.546 195.401 159.445 195.4C159.231 195.081 159.02 194.764 158.819 194.467C157.706 192.733 156.372 191.124 155.458 189.268C153.706 185.158 152.187 180.941 150.66 176.742C150.866 177.159 151.076 177.577 151.292 177.989C153.64 182.32 156.453 186.368 159.515 190.223C161.147 193.998 163.133 197.612 165.45 201.014C164.164 197.878 162.642 194.845 160.902 191.94C161.988 193.26 163.098 194.554 164.227 195.83C165.204 197.027 166.59 197.742 167.869 198.56C168.84 199.095 170.827 200.61 170.993 200.897C171.774 201.598 172.049 202.727 172.547 203.63ZM158.656 198.944C159.066 199.039 159.485 199.014 159.816 198.76C159.644 199.175 159.358 199.538 159.053 199.596C158.785 199.466 158.673 199.232 158.656 198.944ZM161.494 169.116C162.962 170.031 164.623 170.532 166.282 170.984C168.728 171.74 171.186 172.5 173.747 172.761C174.269 172.808 174.795 172.844 175.315 172.882C176.503 173.663 177.573 174.642 178.694 175.502C180.86 177.26 183.013 179.04 185.096 180.893C183.064 178.454 180.775 176.216 178.191 174.36C177.488 173.892 176.784 173.381 176.044 172.938C178.438 173.101 180.845 173.191 183.247 173.226C183.587 173.679 183.915 174.109 184.233 174.531C183.977 174.283 183.727 174.029 183.493 173.76C183.872 174.294 184.274 174.812 184.717 175.293C184.823 175.401 184.93 175.506 185.038 175.611C190.998 183.618 192.443 186.58 194.909 198.273C195.128 199.508 195.429 200.749 195.593 202.001C194.423 201.337 193.086 200.742 191.796 200.487C190.371 200.12 188.9 200.095 187.45 199.912C184.549 199.501 181.853 199.049 179.22 198.069C176.2 196.907 173.645 194.772 171.344 192.542C171.052 192.209 170.777 191.866 170.507 191.52C170.439 191.352 170.37 191.184 170.302 191.016C168.294 186.33 166.439 181.572 164.409 176.899C166.856 180.295 169.395 183.627 171.99 186.916C173.037 188.277 174.082 189.646 175.104 191.024C175.899 192.072 176.631 193.214 177.741 193.96C177.983 194.123 178.235 194.294 178.493 194.46C178.539 194.729 178.618 194.989 178.71 195.232C179 195.986 179.566 196.477 180.248 196.672C180.338 196.744 180.433 196.813 180.519 196.883C180.847 197.247 181.396 197.148 181.707 196.811C181.83 196.725 181.956 196.63 182.068 196.526C182.433 196.361 182.702 196.087 182.849 195.764C183.191 195.677 183.528 195.475 183.535 195.086C183.885 194.248 183.48 193.333 182.85 192.746C181.928 191.905 180.415 191.855 179.361 192.498C179.053 192.172 178.764 191.81 178.443 191.352C177.352 189.924 176.222 188.53 175.048 187.166C173.327 185.112 170.731 182.337 169.261 180.836C167.261 178.622 165.232 176.435 163.191 174.257C162.578 173.018 161.918 171.799 161.196 170.621C162.425 171.203 163.589 171.935 164.652 172.788C165.969 173.947 167.193 175.207 168.614 176.24C169.806 177.405 170.69 178.854 171.763 180.129C173.025 181.722 174.314 183.29 175.594 184.868C173.911 182.008 172.197 179.14 170.215 176.476C169.649 175.774 168.859 175.324 168.18 174.752C166.09 172.849 163.758 171.155 161.023 170.332C160.729 169.862 160.424 169.397 160.105 168.943C163.65 171.182 167.631 172.84 170.717 175.742C173.335 178.517 174.861 182.302 178.069 184.493C178.193 184.578 178.312 184.665 178.431 184.762C178.366 184.99 178.349 185.251 178.417 185.551C178.51 186.063 178.894 186.441 179.295 186.743C180.329 187.581 181.815 187.893 183.045 187.316C183.778 186.978 183.743 186.028 183.739 185.337C183.662 184.12 182.423 183.543 181.307 183.586C181.049 183.486 180.71 183.486 180.461 183.615C180.289 183.616 180.12 183.631 179.951 183.66C179.409 183.248 178.859 182.847 178.401 182.347C177.799 181.692 175.926 179.26 174.884 178.028C171.345 173.13 165.292 171.438 160.085 168.918C159.99 168.783 159.898 168.649 159.803 168.514C158.966 167.624 158.083 166.773 157.175 165.951C158.556 167.095 159.946 168.225 161.494 169.116ZM148.494 159.072C149.476 159.797 150.548 160.584 151.384 161.236C152.059 161.762 152.718 162.309 153.377 162.855C151.41 161.488 149.316 160.303 147.208 159.166C147.639 159.132 148.068 159.103 148.494 159.072ZM146.981 159.175C150.066 161.246 153.515 163.846 155.536 166.214C156.599 167.415 157.811 168.508 158.512 169.976C160.531 173.609 161.938 177.526 163.468 181.379C164.623 184.295 165.892 187.169 167.09 190.067C168.21 192.731 169.325 195.398 170.451 198.061C169.849 197.669 169.239 197.283 168.657 196.874C167.062 195.762 167.315 195.754 166.107 194.411C165.262 193.399 164.386 192.41 163.579 191.369C158.5 185.092 154.024 178.253 151.166 170.668C150.417 168.675 149.627 166.697 148.858 164.71C148.916 164.794 148.979 164.877 149.034 164.96C150.018 166.336 151.016 167.699 152.052 169.034C154.888 172.991 158.036 176.708 160.935 180.62C158.262 175.24 154.962 170.143 150.978 165.641C150.078 164.625 149.197 163.55 148.104 162.728C148.008 162.475 147.909 162.219 147.815 161.962C147.449 161.037 147.157 160.081 146.706 159.192C146.795 159.188 146.886 159.181 146.981 159.175ZM145.048 162.452C145.157 162.76 145.264 163.071 145.37 163.377C145.499 172.984 146.281 182.585 146.182 192.192C145.753 196.992 145.369 201.802 145.198 206.618C145.096 206.502 144.995 206.391 144.9 206.278C142.083 202.949 139.954 199.048 138.521 194.931C136.676 189.111 136.279 180.943 137.533 174.212C138.328 169.045 140.391 164.133 144.078 159.914C144.096 159.926 144.112 159.941 144.129 159.952C144.113 159.937 144.101 159.923 144.085 159.908C144.094 159.898 144.102 159.889 144.11 159.879C144.153 159.826 144.195 159.777 144.235 159.731C144.283 159.865 144.326 159.997 144.372 160.134C144.253 160.397 144.141 160.664 144.029 160.931C143.96 160.908 143.89 160.884 143.821 160.861C143.887 160.892 143.954 160.923 144.02 160.954C142.793 163.874 141.972 166.965 141.526 170.094C141.12 174.095 141.361 178.128 141.65 182.128C141.656 182.201 141.662 182.273 141.668 182.346C141.728 181.834 141.788 181.327 141.848 180.815C142.588 174.247 142.877 167.576 144.387 161.124C144.494 161.175 144.6 161.227 144.708 161.275C144.843 161.803 144.957 162.24 145.048 162.452ZM144.508 160.592C144.564 160.782 144.616 160.97 144.666 161.152C144.577 161.121 144.487 161.093 144.399 161.062C144.435 160.906 144.472 160.749 144.508 160.592ZM150.886 139.067C153.668 134.936 157.349 130.513 160.313 127.413C161.329 126.407 162.407 125.474 163.509 124.569C162.776 125.605 162.043 126.641 161.3 127.669C159.704 129.922 157.962 132.09 156.623 134.512C153.278 140.811 150.594 147.428 147.526 153.855C146.989 154.961 146.515 156.106 145.993 157.218C145.806 157.455 145.614 157.69 145.435 157.939C145.165 157.878 144.889 157.855 144.612 157.867C144.645 157.643 144.687 157.418 144.725 157.192C144.772 157.338 144.821 157.489 144.867 157.635C144.842 157.371 144.81 157.112 144.783 156.85C145.88 150.662 148.263 144.759 150.886 139.067ZM135.212 142.651C135.532 142.336 135.869 142.173 136.144 142.081C136.708 142.229 137.805 142.996 138.568 143.676C141.15 145.602 142.256 148.783 143.039 151.804C143.477 153.316 143.959 154.815 144.442 156.313C144.422 156.832 144.409 157.355 144.414 157.879C143.81 157.939 143.219 158.163 142.743 158.538C142.736 158.544 142.729 158.55 142.722 158.556C142.699 158.56 142.681 158.561 142.661 158.567C140.064 156.178 138.133 154.795 136.208 154.131C136.184 154.029 136.159 153.926 136.129 153.826C135.856 153.009 135.26 152.339 134.794 151.629C134.505 151.311 134.128 151.067 133.899 150.698C133.514 150.029 133.381 149.233 133.408 148.467C133.352 146.41 133.925 144.211 135.212 142.651ZM94.5504 105.079C94.9193 107.701 95.1308 110.342 95.6859 112.938C96.214 115.404 96.8989 117.841 97.5383 120.281C97.9248 121.614 98.3188 122.95 98.7144 124.282C98.5709 123.328 98.4236 122.372 98.2748 121.421C97.8586 118.578 97.4402 115.73 97.102 112.879C97.0084 111.55 96.8641 110.227 96.7887 108.896C96.7322 107.551 96.7938 106.197 96.5935 104.86C96.0708 102.708 95.5262 100.556 94.968 98.4159C95.9787 100.61 96.9788 102.809 97.926 105.031C99.7221 109.707 100.631 113.978 101.953 118.96C103.921 126.266 105.319 133.822 104.538 141.411C104.27 144.676 103.734 147.909 103.016 151.104C102.878 151.721 102.764 152.277 102.651 152.798C102.519 151.924 102.247 151.072 101.963 150.237C101.372 148.475 100.614 146.777 100.092 144.995C99.1965 142.197 98.408 139.362 97.3173 136.635C93.9626 128.898 92.2046 121.255 90.5237 112.852C89.6964 108.912 89.8153 104.87 89.5573 100.87C89.3308 96.9877 89.1914 93.0966 89.1253 89.2086C89.0181 87.8915 88.9199 86.5737 88.8195 85.2506C90.435 91.0093 92.773 99.2859 94.5504 105.079ZM86.6698 60.6685C87.5582 61.5618 88.4374 62.4557 89.413 63.2523C91.4189 65.0914 93.9804 66.0733 96.3393 67.3515C97.5421 67.9979 98.5568 68.9375 99.5472 69.8718C101.139 71.5618 103.051 72.902 104.765 74.4612C108.412 77.4743 112.324 80.1329 116.173 82.8716C117.189 83.5917 118.318 84.1252 119.389 84.7493C121.914 86.3359 124.382 88.0094 126.792 89.7607C129.527 91.7745 132.348 93.7082 134.791 96.0878C132.953 93.8638 130.728 92.0114 128.547 90.1371C126.109 88.0626 123.577 86.0999 120.939 84.283C119.949 83.6431 118.89 83.1076 117.948 82.3906C112.163 78.021 106.149 73.8932 100.97 68.7922C98.1273 65.9533 93.9025 65.2073 91.0395 62.3865C90.0353 61.5521 89.1607 60.5809 88.2134 59.6815C88.0328 59.5298 87.8522 59.3781 87.6754 59.2279C88.6501 59.6551 89.672 59.9651 90.7268 60.095C92.1266 60.2626 93.4554 60.7707 94.8063 61.1472C96.8229 61.7693 98.8804 62.2894 100.842 63.0696C104.187 64.4852 107.313 66.3574 110.503 68.08C112.719 69.3534 115.051 70.4143 117.274 71.6817C119.299 72.9048 121.239 74.2647 123.117 75.7009C127.719 79.2872 132.771 83.1642 136.127 87.1848C137.437 88.7221 138.852 90.1832 140.018 91.8383C142.462 95.7118 144.753 99.682 147.03 103.655C149.584 107.933 151.48 112.645 154.536 116.602C154.828 117.11 154.949 117.181 154.938 117.59C154.704 117.57 154.468 117.546 154.234 117.504C154.032 117.471 154.091 117.521 154.051 117.47C152.059 116.95 150.256 115.873 148.535 114.768C143.921 111.964 139.71 108.574 135.334 105.43C129.193 100.777 122.628 96.652 116.99 91.3708C115.245 89.7554 113.282 88.4121 111.426 86.932C109.587 85.3755 107.831 83.7246 106.11 82.0396C103.178 79.1604 100.444 76.084 97.6005 73.1171C96.2024 71.6455 93.6896 69.3521 92.8332 68.3794C90.5228 65.8556 88.3967 63.1686 86.2008 60.5458C85.8943 60.1721 85.5855 59.7931 85.2789 59.4194C85.7481 59.8366 86.2385 60.2227 86.6698 60.6685Z" fill="white"/>
<path d="M161.347 206.137C161.493 206.037 161.615 205.92 161.663 205.799C161.738 205.644 161.563 205.512 161.512 205.378C161.203 204.594 160.412 204.136 159.6 204.059C159.314 204.015 159.063 204.028 158.841 204.079C158.816 204.052 158.791 204.028 158.77 204.003C157.553 202.757 156.843 201.149 156.003 199.643C152.25 193.161 151.677 185.946 150.791 178.46C150.221 185.676 149.852 193.356 153.511 199.888C154.588 201.938 155.756 204.038 157.675 205.416C157.572 206.086 157.783 206.861 158.305 207.409C158.662 207.746 159.166 207.847 159.622 207.978C159.972 208.114 160.611 208.262 160.946 207.887C161.111 207.413 161.469 206.981 161.45 206.46C161.428 206.35 161.394 206.239 161.347 206.137ZM159.93 207.236C159.872 207.204 159.824 207.172 159.782 207.133C159.727 207.063 159.681 206.969 159.637 206.873C159.809 206.924 160.002 206.914 160.176 206.865C160.107 206.991 160.018 207.114 159.93 207.236ZM160.118 206.715C159.894 206.8 159.798 206.669 159.759 206.491C159.939 206.524 160.122 206.54 160.309 206.523C160.306 206.54 160.3 206.555 160.296 206.567C160.243 206.62 160.184 206.671 160.118 206.715Z" fill="white"/>
</svg>
