<svg width="90" height="148" viewBox="0 0 90 148" fill="none" xmlns="http://www.w3.org/2000/svg">
<mask id="path-1-inside-1_2334_1151" fill="white">
<path d="M87.5721 69.4615C87.036 68.4429 86.6247 67.2948 85.6101 66.6542C85.2592 66.3854 84.8917 66.0896 84.4429 66.0239C83.9153 65.9267 83.3799 66.0567 82.9032 66.283C81.7045 66.8324 80.4751 67.6676 80.0015 68.9587C79.636 70.4488 80.0317 72.0176 80.1473 73.5253C80.312 75.5861 80.6217 77.5135 80.2695 79.3459C80.0646 80.3378 79.7244 81.335 78.8809 81.9517C78.0769 82.6705 77.1906 83.2888 76.3595 83.9731C75.0672 84.602 73.7268 85.1422 72.3639 85.5973C70.7097 86.1324 68.8947 86.7423 67.9788 88.3446C67.6038 89.0501 67.4658 89.8621 67.2173 90.6199C66.4863 92.9988 66.3251 95.5443 66.9229 97.9795C67.4725 100.015 68.5016 101.885 69.5055 103.726C72.3976 109.25 77.0098 113.378 82.0051 116.936C82.3688 117.479 82.8238 117.948 83.2726 118.421C83.4846 118.647 83.6818 118.891 83.8886 119.122C83.7637 119.096 83.6379 119.068 83.511 119.043C81.2033 117.554 78.8998 116.058 76.5995 114.559C73.4244 112.485 70.4397 110.65 67.5223 108.452C64.9308 106.526 62.4981 104.393 60.0943 102.237C58.421 100.719 56.755 99.1952 55.1312 97.6239C54.0202 96.4215 52.8955 95.2324 51.7614 94.0547C48.2453 90.3322 45.2733 86.1546 42.495 81.8614C41.891 80.9648 41.2943 80.0626 40.7057 79.1569C40.6904 79.1051 40.6702 79.053 40.655 79.0012C40.494 78.3798 40.3852 77.7503 40.2964 77.117C40.3688 77.217 40.442 77.3191 40.5185 77.4174C40.4365 77.2729 40.3564 77.1274 40.2764 76.982C40.1227 75.8706 40.0201 74.7491 39.7992 73.6498C39.4744 71.6487 38.9758 69.6646 39.0026 67.6277C38.9368 65.0323 38.5993 62.4452 38.5981 59.8484C38.7052 57.6015 39.4621 54.486 40.429 52.0607C41.7775 48.7055 43.3302 45.437 44.776 42.1224C45.397 40.8038 45.9663 39.4492 46.7084 38.1925C47.1665 37.5727 47.6952 37.0098 48.1743 36.4051C49.4874 34.8276 50.3399 32.9291 51.3655 31.1623C52.2734 29.4248 52.9629 27.5458 53.2948 25.6054C53.5185 23.9943 53.4978 22.3602 53.5442 20.736C53.5643 19.6465 53.4407 18.5658 53.3292 17.4847C53.2249 16.4151 53.204 15.2923 52.6223 14.3471C51.9599 13.1935 50.4931 13.3699 49.6526 14.2385C49.2234 14.6243 49.0029 15.1849 48.6806 15.6558C48.1606 16.4558 47.7864 17.3412 47.5951 18.281C47.248 19.897 47.2631 21.5627 47.0017 23.1926C46.6953 24.8858 46.2665 26.564 45.802 28.2211C45.5233 29.065 45.2678 29.9402 44.7792 30.6902C44.0461 31.7507 43.0963 32.6399 42.1083 33.458C40.9651 34.475 39.5744 35.1611 38.4605 36.2068C37.9416 36.6753 37.574 37.2754 37.2078 37.8676C36.6814 38.6194 36.1874 39.396 35.6188 40.1173C35.1299 40.6995 34.6884 41.3243 34.3494 42.0069C33.9935 42.8234 33.7183 43.6755 33.3917 44.5037C32.0159 48.1409 32.0367 52.119 32.1967 55.9613C32.2703 58.0349 32.439 60.1159 32.9608 62.1313C33.4638 64.0698 34.2567 65.914 35.0604 67.7439C36.1558 70.2017 37.3546 72.6196 38.7823 74.8968C38.8733 75.4293 38.9442 75.9657 39.011 76.5039C37.5281 74.1216 36.1119 71.6983 34.7941 69.2177C33.3482 66.6758 31.825 64.1674 30.5773 61.52C28.537 57.1573 26.6613 52.0829 25.2157 47.187C24.5579 45.014 23.9628 42.8186 23.6047 40.5739C23.5027 40.1216 23.4027 39.6684 23.3026 39.2152C23.3325 38.3211 23.3863 37.4263 23.4092 36.5328C23.5122 34.0759 23.1225 31.6356 23.4199 29.4375C23.7163 26.9867 24.3729 24.5865 24.4848 22.1111C24.5808 20.6455 24.4023 19.1821 24.3771 17.7155C24.3489 16.053 24.4609 14.3906 24.415 12.7261C24.3413 10.0513 24.2792 7.36412 23.622 4.75267C23.3886 3.58574 23.3528 2.36225 22.9051 1.24693C22.6867 0.77697 22.4093 0.276654 21.959 0.00710481C21.5953 -0.0517342 21.2792 0.260687 21.0661 0.5211C20.8901 0.794629 20.8862 1.14196 20.8116 1.45427C20.7266 1.9877 20.5935 2.51038 20.4418 3.02899C19.9662 4.72747 19.2967 6.39084 19.1383 8.16346C18.9502 10.1291 19.1729 12.1064 19.1077 14.0771C19.1101 16.1646 18.7961 18.3358 18.977 20.6452C19.2396 23.1042 19.8165 25.5193 20.1972 27.961C20.7309 31.3953 21.0302 34.8631 21.8205 38.2542C22.0271 39.2648 22.2619 40.268 22.4767 41.2751C22.69 42.4848 22.8992 43.6963 23.23 44.8818C24.7428 50.6784 26.7405 56.357 29.2095 61.819C30.4646 64.5557 32.0133 67.1454 33.5084 69.7561C34.9216 72.334 36.3758 74.8894 37.9057 77.4022C38.4982 78.2891 39.0856 79.1807 39.6718 80.0753C39.8984 80.7535 40.1799 81.4078 40.4919 82.0489C40.2393 81.7618 39.9856 81.4776 39.7309 81.1913C37.8808 79.0706 36.082 76.9009 34.1277 74.8741C35.293 75.9677 36.3994 77.1259 37.4808 78.3046C36.2642 76.6028 34.969 74.9594 33.5471 73.4246C32.6335 72.5382 31.6823 71.7265 30.8014 70.8041C28.7064 68.6923 26.4218 66.7893 24.291 64.7174C23.1322 63.4774 22.0234 62.1913 20.9604 60.8658C21.1674 61.0535 21.3715 61.24 21.5786 61.4277C21.2858 61.0703 20.9911 60.7138 20.6972 60.3594C20.2143 59.8143 19.7488 59.2592 19.2877 58.6974C19.2347 58.6255 19.1788 58.5524 19.1259 58.4804C18.0294 56.9163 16.721 55.4929 15.7871 53.8194C14.704 51.7797 14.0138 49.4819 13.2846 47.111C12.9809 46.016 12.7022 44.9004 12.2001 43.8768C11.7192 43.0023 11.0107 42.2824 10.2892 41.6048C9.28811 40.6614 8.19426 39.8216 7.20563 38.868C5.5901 37.1543 4.2862 35.3516 4.10639 33.0222C4.05111 32.5107 3.95072 32.0066 3.86838 31.4995C3.81938 31.2919 3.53405 31.3914 3.40789 31.4681C1.49913 32.6078 3.03635 42.4466 3.92711 44.3994C4.39007 45.4107 5.04831 46.3154 5.587 47.2841C6.44901 48.7698 7.33134 50.2467 8.34124 51.639C9.47419 53.2481 10.7592 54.74 12.0153 56.2543C13.1212 57.5952 14.2894 58.8847 15.5311 60.0986C17.7983 62.1843 20.3449 63.9395 22.6913 65.9349C24.979 67.9898 27.2436 70.0694 29.4882 72.1698C31.0344 73.6069 32.6446 74.9797 34.0639 76.5473C36.8579 79.6021 39.4904 82.8024 42.3104 85.8337C42.4731 86.0138 42.6399 86.1922 42.8026 86.3723C43.2147 87.155 43.6615 87.9177 44.2339 88.5968C45.2145 89.8435 46.169 91.1138 47.24 92.2849C48.1288 93.2478 49.0687 94.1617 49.8993 95.1741C50.8073 96.2869 51.653 97.4511 52.6483 98.487C53.626 99.421 54.5838 100.376 55.526 101.345C53.7814 99.9573 52.0476 98.5554 50.2776 97.1983C48.6497 96.0961 47.0004 95.0226 45.3606 93.9377C43.7555 92.8548 42.1509 91.7619 40.3985 90.9352C38.8136 90.194 37.2185 89.4792 35.6282 88.7477C34.785 88.3687 33.9957 87.8689 33.1119 87.5855C27.1127 85.7778 20.7745 86.0889 14.5911 85.9385C11.2763 85.853 7.96357 85.7666 4.65338 85.5915C3.33047 85.5374 2.003 85.4173 0.691917 85.307C0.379778 85.4059 0.0626533 85.6604 0.00301097 85.9905C-0.00601619 86.0309 0.00388374 86.0705 0.030935 86.105C0.525209 86.8155 1.31527 87.2614 2.00865 87.7516C4.58287 89.5483 7.36208 92.2517 10.2641 94.0523C11.9176 94.9852 13.464 96.1666 15.2882 96.7358C17.245 97.3935 19.2712 97.7825 21.2606 98.3092C23.386 98.8378 25.4974 99.4454 27.6493 99.8456C28.9113 100.06 30.1901 100.14 31.4594 100.31C32.985 100.481 34.511 100.741 36.0506 100.699C36.8399 100.653 37.6194 100.49 38.4105 100.471C39.1735 100.398 39.9438 100.453 40.7034 100.367C44.1367 99.9237 47.0601 98.7453 50.3853 100.586C52.0141 101.401 53.4193 102.585 55.0014 103.476C56.8174 104.477 58.6136 105.516 60.3772 106.608C60.9859 106.987 61.5848 107.382 62.1828 107.774C62.63 108.143 63.0835 108.503 63.5509 108.846C65.8461 110.523 68.3329 111.912 70.9008 113.115C71.8043 113.538 72.7098 113.961 73.6334 114.341C74.4839 114.81 75.3385 115.276 76.1945 115.735C75.82 115.479 75.4476 115.222 75.0732 114.965C75.1334 114.993 75.1924 115.023 75.2526 115.051C77.397 116.335 79.5804 117.554 81.7926 118.717C81.6171 118.691 81.4386 118.664 81.2616 118.646C81.1444 118.626 81.0298 118.612 80.9123 118.598C80.2239 118.397 79.5294 118.222 78.8237 118.087C77.3764 117.785 75.8957 117.513 74.4207 117.731C73.0806 117.877 71.7666 118.172 70.4518 118.465C68.6542 118.831 66.8706 119.274 65.1677 119.964C62.7096 120.946 60.6966 122.859 59.406 125.161C58.4206 127.015 57.6958 129.002 56.8122 130.907C56.3714 131.906 55.9257 132.905 55.485 133.905C55.2927 134.341 55.1419 134.801 54.8847 135.205C54.6533 135.551 54.3437 135.834 54.0402 136.114C52.9907 136.968 51.9235 137.821 50.7572 138.512C49.8223 139.052 48.7834 139.368 47.7497 139.664C46.9476 139.88 46.1719 140.202 45.353 140.358C44.4858 140.486 43.6008 140.4 42.7321 140.307C41.8351 140.222 40.2337 139.804 39.1006 139.303C38.4364 139.058 37.8459 138.615 37.1395 138.496C36.8368 138.372 36.5103 138.46 36.2766 138.678C36.1461 138.8 36.0063 138.929 35.9517 139.104C35.8912 139.237 35.9502 139.384 35.946 139.525C35.8928 140.816 36.5672 141.948 37.2243 143.011C37.8084 144.062 38.7115 144.863 39.7046 145.515C41.1384 146.588 42.8435 147.25 44.608 147.492C47.5778 147.968 50.4395 146.77 53.0671 145.528C54.8417 144.736 56.4381 143.622 57.9055 142.35C59.3903 141.124 60.824 139.83 62.1374 138.421C64.0558 136.318 65.1286 134.793 66.8457 132.778C67.7818 131.556 68.7029 130.317 69.8208 129.252C70.5674 128.49 71.407 127.831 72.2353 127.163C73.1975 126.363 74.1749 125.576 75.2521 124.936C77.4565 123.787 78.7261 122.922 80.9587 122.056C82.2149 121.589 83.6069 121.769 85.1424 121.416C86.0847 121.801 87.0134 122.199 87.9218 122.584C88.3538 122.783 88.808 122.394 89.0114 122.033C89.1607 121.776 88.8885 121.599 88.7554 121.404C88.5231 121.108 88.2847 120.815 87.9908 120.577C87.9756 120.564 87.9583 120.552 87.9431 120.539C87.9575 120.528 87.9729 120.519 87.9854 120.509C88.2381 120.329 88.5927 119.983 88.5003 119.653C88.4853 119.596 88.4504 119.56 88.3896 119.542C88.1029 119.416 87.787 119.395 87.478 119.395C87.0962 119.417 86.6621 119.413 86.228 119.392C85.5518 118.953 84.9259 118.485 84.3741 117.714C84.0356 117.318 83.6546 116.957 83.3329 116.544C83.3162 116.523 83.3014 116.5 83.2867 116.477C83.3459 116.524 83.4019 116.575 83.462 116.625C83.361 116.52 83.2652 116.411 83.1663 116.305C82.8047 115.778 82.4742 115.228 82.1239 114.693C81.2752 113.472 80.6864 112.104 80.0779 110.752C79.6365 109.823 79.1583 108.916 78.674 108.011C78.0649 106.652 77.634 105.654 77.0646 104.219C76.7757 103.592 76.7643 102.903 76.78 102.227C76.7893 101.463 76.7937 100.7 76.8099 99.9356C76.8297 98.2109 76.9419 96.6214 77.3807 94.749C77.6988 93.467 78.1932 92.235 78.6695 91.0059C79.7102 88.3052 81.9208 86.3359 83.6517 84.0903C84.7131 82.6342 85.6811 81.1188 86.6157 79.5765C87.0491 78.8384 87.5675 78.1461 87.9409 77.3755C88.3218 76.3608 88.535 75.2824 88.6597 74.2059C88.7326 73.539 88.7845 72.8568 88.6555 72.1923C88.4617 71.2224 88.0346 70.3269 87.5721 69.4615ZM35.7708 66.737C35.0533 64.8162 34.298 62.8972 33.8391 60.8934C33.2626 58.3735 33.2443 55.7817 33.1365 53.2118C33.166 50.7527 33.1951 48.2645 33.8302 45.8761C34.0866 44.8861 34.4525 43.9314 34.8185 42.9767C35.0863 42.23 35.3622 41.4798 35.8449 40.8444C36.5746 39.9265 37.2602 38.9792 37.9152 38.0061C38.2891 37.4593 38.584 36.842 39.1 36.4113C39.6318 35.9225 40.2761 35.587 40.8544 35.1608C42.0051 34.328 43.1161 33.437 44.1225 32.4332C44.7651 31.76 45.403 31.0646 45.8661 30.2502C46.5835 28.8922 46.976 27.3807 47.3403 25.8936C47.8832 23.8714 48.2559 21.8135 48.3563 19.7179C48.4556 18.7109 48.5813 17.6924 48.9274 16.7366C49.195 16.0119 49.6536 15.3821 50.0356 14.7149C50.1468 14.4256 50.5053 14.3723 50.7783 14.417C51.5373 14.5574 51.8431 15.2621 52.0558 15.8806C52.2955 16.7502 52.2932 17.6689 52.3807 18.5608C52.5411 19.8714 52.5402 21.1886 52.4808 22.5045C52.4257 23.9865 52.4293 25.314 52.0654 26.908C51.5855 28.9248 50.7338 30.8254 49.6674 32.5928C49.1416 33.5074 48.6561 34.4483 48.0695 35.3285C47.3734 36.3851 46.4414 37.2544 45.7081 38.2809C44.9564 39.4931 44.3997 40.8154 43.7854 42.0994C42.7818 44.3678 41.7714 46.6318 40.7698 48.8993C39.4842 51.7258 38.334 54.6639 37.7667 57.7263C37.7864 54.3927 38.2723 51.0759 38.6071 47.7614C38.6676 47.1217 38.7084 46.4809 38.7591 45.8406C38.6505 46.4476 38.5428 47.0566 38.4371 47.6648C37.5968 52.0408 36.5951 56.4456 36.8559 60.9378C36.9784 63.5525 37.3957 66.1342 37.8842 68.7021C37.9015 69.2374 37.9218 69.7738 37.974 70.3062C38.1455 71.3807 38.3511 72.4501 38.5427 73.5208C37.5274 71.3032 36.6407 69.0201 35.7708 66.737ZM22.3197 34.5227C21.8393 31.445 21.5362 28.3416 20.9345 25.2849C20.6228 23.5142 20.2341 21.7501 20.0466 19.9596C19.8944 17.9444 20.0516 16.776 20.1326 14.886C20.2719 12.4182 19.9974 9.72587 20.1998 7.55928C20.4062 5.54673 21.2432 3.67925 21.707 1.72542C21.7107 1.71165 21.7135 1.69583 21.7172 1.68206C21.7747 1.78124 21.8291 1.88423 21.8764 1.98782C22.1882 2.67287 22.3715 4.2534 22.5515 5.28043C22.925 6.9318 23.197 8.6053 23.2435 10.2988C23.3619 12.5647 23.3869 14.8323 23.3046 17.0976C23.257 18.591 23.4035 20.0755 23.4275 21.567C23.5339 25.0966 22.0061 28.9847 22.2758 32.8184C22.3331 33.5627 22.3813 34.3085 22.4267 35.0532C22.3919 34.8784 22.3542 34.7025 22.3197 34.5227ZM17.366 60.1081C15.632 58.5943 14.1103 56.852 12.6418 55.0819C11.2543 53.4372 9.88149 51.7764 8.67705 49.9914C7.43312 48.1432 6.35245 46.1926 5.18856 44.295C4.65278 43.4054 4.48108 42.5086 4.23308 41.3748C3.96897 40.1093 3.78311 38.8292 3.63512 37.5473C3.55955 36.772 3.48654 35.9858 3.45722 35.2001C3.49061 35.3049 3.52514 35.4068 3.56755 35.5101C4.13623 37.0378 5.15148 38.3645 6.2516 39.5473C7.41818 40.6939 8.73595 41.6824 9.88347 42.8519C10.4267 43.4024 10.9414 44.0042 11.2995 44.696C11.7719 45.6789 12.1293 47.2374 12.501 48.5172C12.6677 49.0071 12.8263 49.5006 12.9869 49.9932C10.9519 46.9231 8.97487 43.8084 6.86023 40.7997C8.69984 44.4827 10.5405 48.1848 12.7874 51.6376C13.3655 52.4968 13.9682 53.3404 14.5988 54.1646C14.7141 54.3969 14.8346 54.6245 14.9641 54.8507C15.955 56.5166 17.2558 57.9725 18.3775 59.55C19.347 60.8381 20.3504 62.1042 21.4028 63.3271C20.0596 62.2523 18.689 61.2088 17.366 60.1081ZM50.3721 98.9635C47.7256 98.0525 44.9535 97.5976 42.227 97.0086C39.8057 96.533 37.4095 95.9369 34.9956 95.4337C34.0268 95.2163 33.057 95.0018 32.086 94.7902C32.1885 94.8261 32.2901 94.8599 32.3947 94.8949C33.6635 95.3253 34.9346 95.7498 36.2152 96.146C38.6807 96.9407 41.1693 97.6549 43.6873 98.259C44.3875 98.442 45.0925 98.6083 45.7964 98.7776C44.2697 98.9386 42.7166 99.3228 40.9953 99.5195C40.1472 99.5467 39.2999 99.559 38.4518 99.6251C37.7851 99.6807 37.1281 99.8198 36.457 99.8262C34.8141 99.8307 33.1868 99.5485 31.5563 99.3699C29.3281 99.178 27.1459 98.808 24.9883 98.2107C22.5147 97.5533 20.0221 96.9747 17.5449 96.3311C16.611 96.0547 15.6676 95.7898 14.7825 95.3754C14.0713 95.039 13.4141 94.5987 12.738 94.1984C9.4934 92.432 6.83381 89.9932 3.83629 87.6329C3.19157 87.1045 2.55787 86.7684 1.96916 86.3301C2.04639 86.3356 2.12363 86.341 2.19883 86.3473C8.18366 86.708 14.1782 86.8016 20.1688 86.875C24.4542 87.0043 28.8706 87.1571 32.9523 88.6259C35.4986 89.9187 38.1607 90.9715 40.6982 92.2827C42.2837 93.1258 43.741 94.1853 45.2451 95.1635C46.7978 96.2035 48.5572 97.2803 49.8698 98.2735C50.3239 98.6241 50.7759 98.9757 51.2268 99.3302C50.9476 99.1933 50.6647 99.0702 50.3721 98.9635ZM59.8447 104.123C58.9698 103.275 58.119 102.406 57.2985 101.506C57.1614 101.351 57.0231 101.199 56.8836 101.05C57.6021 101.71 58.3238 102.365 59.0475 103.02C59.7031 103.607 60.3599 104.191 61.0219 104.77C60.6326 104.552 60.2392 104.336 59.8447 104.123ZM82.4706 120.614C81.5553 120.809 80.6836 121.16 79.8477 121.572C78.8245 122.069 77.8296 122.615 76.8427 123.18C76.0269 123.604 75.2047 124.019 74.4473 124.545C72.1542 126.185 69.9309 127.975 68.0385 130.077C66.8323 131.449 65.9277 132.833 64.7545 134.182C63.0663 136.292 61.492 138.314 59.4792 140.127C58.078 141.367 56.6853 142.639 55.1191 143.666C53.4894 144.636 51.7426 145.426 49.9498 146.048C46.8888 147.121 43.8176 146.684 41.0884 144.925C40.3988 144.438 39.0715 143.578 38.4919 142.554C38.123 142.015 37.4615 140.824 37.3451 140.517C37.2238 140.266 37.1557 140.003 37.1148 139.736C37.4827 139.905 37.8395 140.098 38.2155 140.247C39.3591 140.717 40.5452 141.095 41.7738 141.244C42.7642 141.367 43.7784 141.472 44.7683 141.315C46.0022 141.069 47.183 140.601 48.3956 140.267C50.0466 139.775 51.5306 138.875 52.8704 137.804C54.2427 136.798 55.7309 135.719 56.3253 134.049C57.512 131.329 58.728 128.62 59.9148 125.9C61.8863 121.576 65.0235 120.49 69.3648 119.567C71.2856 119.162 73.211 118.629 75.1897 118.646C75.7653 118.682 76.3499 118.754 76.9393 118.849C73.7261 119.671 71.0088 121.831 67.9606 123.545C72.2871 121.554 75.4642 118.817 80.2205 119.725C80.4573 119.759 80.6936 119.803 80.9298 119.846C81.5956 120.061 82.2603 120.296 82.9254 120.543C82.7662 120.566 82.614 120.588 82.4706 120.614ZM87.4736 72.8585C87.7207 74.3018 87.3628 75.8373 86.9267 77.4431C86.5756 78.3428 85.9344 79.103 85.4602 79.9416C84.6272 81.3229 83.7453 82.6695 82.7962 83.9723C81.646 85.4742 80.4379 86.6702 79.1388 88.4412C78.1294 89.7555 77.4834 91.2894 76.9532 92.8509C75.9818 95.2659 75.6187 97.8747 75.6227 100.473C75.6087 101.309 75.6087 102.144 75.6025 102.981C75.5658 103.776 75.6758 104.558 76.0315 105.278C76.418 106.269 76.8353 107.22 77.2783 108.157C76.6917 107.173 76.1428 106.169 75.6503 105.134C74.8238 103.402 74.1288 101.294 73.6179 99.2199C73.0597 97.2933 72.815 95.2988 72.836 93.2986C72.8229 91.6149 73.0025 89.9304 73.3719 88.2878C72.8666 89.8288 72.5197 91.4228 72.3534 93.0381C72.1016 95.3357 72.1672 97.6635 72.7196 99.9164C73.1285 101.944 73.7295 103.947 74.6693 105.796C75.9109 108.234 77.5617 110.441 79.3409 112.51C79.4038 112.583 79.4658 112.653 79.5277 112.724C79.7782 113.267 80.0347 113.808 80.337 114.327C80.6944 114.956 81.103 115.552 81.5024 116.156C77.0199 112.076 72.8049 107.622 70.0188 102.181C69.158 100.537 68.4469 99.1706 67.9678 97.4653C67.3805 95.1375 67.4789 92.6923 68.1742 90.4092C68.9527 87.4717 69.0225 87.4877 71.9208 86.5076C73.4423 86.0008 74.9459 85.419 76.3791 84.6973C77.6321 83.7496 78.9134 82.8115 80.0221 81.6926C82.1521 79.2203 81.4046 75.6159 81.1725 72.6204C81.0609 71.6952 80.9443 70.7696 80.9046 69.8376C80.8902 69.2255 80.8643 68.5479 81.2966 68.0634C81.899 67.3419 83.1798 66.7424 83.7946 67.0014C84.3553 67.2303 84.6867 67.5709 85.2262 68.0573C85.5766 68.414 85.7682 68.8835 85.9983 69.3191C86.6182 70.6421 87.2165 71.5144 87.4736 72.8585Z"/>
</mask>
<path d="M87.5721 69.4615C87.036 68.4429 86.6247 67.2948 85.6101 66.6542C85.2592 66.3854 84.8917 66.0896 84.4429 66.0239C83.9153 65.9267 83.3799 66.0567 82.9032 66.283C81.7045 66.8324 80.4751 67.6676 80.0015 68.9587C79.636 70.4488 80.0317 72.0176 80.1473 73.5253C80.312 75.5861 80.6217 77.5135 80.2695 79.3459C80.0646 80.3378 79.7244 81.335 78.8809 81.9517C78.0769 82.6705 77.1906 83.2888 76.3595 83.9731C75.0672 84.602 73.7268 85.1422 72.3639 85.5973C70.7097 86.1324 68.8947 86.7423 67.9788 88.3446C67.6038 89.0501 67.4658 89.8621 67.2173 90.6199C66.4863 92.9988 66.3251 95.5443 66.9229 97.9795C67.4725 100.015 68.5016 101.885 69.5055 103.726C72.3976 109.25 77.0098 113.378 82.0051 116.936C82.3688 117.479 82.8238 117.948 83.2726 118.421C83.4846 118.647 83.6818 118.891 83.8886 119.122C83.7637 119.096 83.6379 119.068 83.511 119.043C81.2033 117.554 78.8998 116.058 76.5995 114.559C73.4244 112.485 70.4397 110.65 67.5223 108.452C64.9308 106.526 62.4981 104.393 60.0943 102.237C58.421 100.719 56.755 99.1952 55.1312 97.6239C54.0202 96.4215 52.8955 95.2324 51.7614 94.0547C48.2453 90.3322 45.2733 86.1546 42.495 81.8614C41.891 80.9648 41.2943 80.0626 40.7057 79.1569C40.6904 79.1051 40.6702 79.053 40.655 79.0012C40.494 78.3798 40.3852 77.7503 40.2964 77.117C40.3688 77.217 40.442 77.3191 40.5185 77.4174C40.4365 77.2729 40.3564 77.1274 40.2764 76.982C40.1227 75.8706 40.0201 74.7491 39.7992 73.6498C39.4744 71.6487 38.9758 69.6646 39.0026 67.6277C38.9368 65.0323 38.5993 62.4452 38.5981 59.8484C38.7052 57.6015 39.4621 54.486 40.429 52.0607C41.7775 48.7055 43.3302 45.437 44.776 42.1224C45.397 40.8038 45.9663 39.4492 46.7084 38.1925C47.1665 37.5727 47.6952 37.0098 48.1743 36.4051C49.4874 34.8276 50.3399 32.9291 51.3655 31.1623C52.2734 29.4248 52.9629 27.5458 53.2948 25.6054C53.5185 23.9943 53.4978 22.3602 53.5442 20.736C53.5643 19.6465 53.4407 18.5658 53.3292 17.4847C53.2249 16.4151 53.204 15.2923 52.6223 14.3471C51.9599 13.1935 50.4931 13.3699 49.6526 14.2385C49.2234 14.6243 49.0029 15.1849 48.6806 15.6558C48.1606 16.4558 47.7864 17.3412 47.5951 18.281C47.248 19.897 47.2631 21.5627 47.0017 23.1926C46.6953 24.8858 46.2665 26.564 45.802 28.2211C45.5233 29.065 45.2678 29.9402 44.7792 30.6902C44.0461 31.7507 43.0963 32.6399 42.1083 33.458C40.9651 34.475 39.5744 35.1611 38.4605 36.2068C37.9416 36.6753 37.574 37.2754 37.2078 37.8676C36.6814 38.6194 36.1874 39.396 35.6188 40.1173C35.1299 40.6995 34.6884 41.3243 34.3494 42.0069C33.9935 42.8234 33.7183 43.6755 33.3917 44.5037C32.0159 48.1409 32.0367 52.119 32.1967 55.9613C32.2703 58.0349 32.439 60.1159 32.9608 62.1313C33.4638 64.0698 34.2567 65.914 35.0604 67.7439C36.1558 70.2017 37.3546 72.6196 38.7823 74.8968C38.8733 75.4293 38.9442 75.9657 39.011 76.5039C37.5281 74.1216 36.1119 71.6983 34.7941 69.2177C33.3482 66.6758 31.825 64.1674 30.5773 61.52C28.537 57.1573 26.6613 52.0829 25.2157 47.187C24.5579 45.014 23.9628 42.8186 23.6047 40.5739C23.5027 40.1216 23.4027 39.6684 23.3026 39.2152C23.3325 38.3211 23.3863 37.4263 23.4092 36.5328C23.5122 34.0759 23.1225 31.6356 23.4199 29.4375C23.7163 26.9867 24.3729 24.5865 24.4848 22.1111C24.5808 20.6455 24.4023 19.1821 24.3771 17.7155C24.3489 16.053 24.4609 14.3906 24.415 12.7261C24.3413 10.0513 24.2792 7.36412 23.622 4.75267C23.3886 3.58574 23.3528 2.36225 22.9051 1.24693C22.6867 0.77697 22.4093 0.276654 21.959 0.00710481C21.5953 -0.0517342 21.2792 0.260687 21.0661 0.5211C20.8901 0.794629 20.8862 1.14196 20.8116 1.45427C20.7266 1.9877 20.5935 2.51038 20.4418 3.02899C19.9662 4.72747 19.2967 6.39084 19.1383 8.16346C18.9502 10.1291 19.1729 12.1064 19.1077 14.0771C19.1101 16.1646 18.7961 18.3358 18.977 20.6452C19.2396 23.1042 19.8165 25.5193 20.1972 27.961C20.7309 31.3953 21.0302 34.8631 21.8205 38.2542C22.0271 39.2648 22.2619 40.268 22.4767 41.2751C22.69 42.4848 22.8992 43.6963 23.23 44.8818C24.7428 50.6784 26.7405 56.357 29.2095 61.819C30.4646 64.5557 32.0133 67.1454 33.5084 69.7561C34.9216 72.334 36.3758 74.8894 37.9057 77.4022C38.4982 78.2891 39.0856 79.1807 39.6718 80.0753C39.8984 80.7535 40.1799 81.4078 40.4919 82.0489C40.2393 81.7618 39.9856 81.4776 39.7309 81.1913C37.8808 79.0706 36.082 76.9009 34.1277 74.8741C35.293 75.9677 36.3994 77.1259 37.4808 78.3046C36.2642 76.6028 34.969 74.9594 33.5471 73.4246C32.6335 72.5382 31.6823 71.7265 30.8014 70.8041C28.7064 68.6923 26.4218 66.7893 24.291 64.7174C23.1322 63.4774 22.0234 62.1913 20.9604 60.8658C21.1674 61.0535 21.3715 61.24 21.5786 61.4277C21.2858 61.0703 20.9911 60.7138 20.6972 60.3594C20.2143 59.8143 19.7488 59.2592 19.2877 58.6974C19.2347 58.6255 19.1788 58.5524 19.1259 58.4804C18.0294 56.9163 16.721 55.4929 15.7871 53.8194C14.704 51.7797 14.0138 49.4819 13.2846 47.111C12.9809 46.016 12.7022 44.9004 12.2001 43.8768C11.7192 43.0023 11.0107 42.2824 10.2892 41.6048C9.28811 40.6614 8.19426 39.8216 7.20563 38.868C5.5901 37.1543 4.2862 35.3516 4.10639 33.0222C4.05111 32.5107 3.95072 32.0066 3.86838 31.4995C3.81938 31.2919 3.53405 31.3914 3.40789 31.4681C1.49913 32.6078 3.03635 42.4466 3.92711 44.3994C4.39007 45.4107 5.04831 46.3154 5.587 47.2841C6.44901 48.7698 7.33134 50.2467 8.34124 51.639C9.47419 53.2481 10.7592 54.74 12.0153 56.2543C13.1212 57.5952 14.2894 58.8847 15.5311 60.0986C17.7983 62.1843 20.3449 63.9395 22.6913 65.9349C24.979 67.9898 27.2436 70.0694 29.4882 72.1698C31.0344 73.6069 32.6446 74.9797 34.0639 76.5473C36.8579 79.6021 39.4904 82.8024 42.3104 85.8337C42.4731 86.0138 42.6399 86.1922 42.8026 86.3723C43.2147 87.155 43.6615 87.9177 44.2339 88.5968C45.2145 89.8435 46.169 91.1138 47.24 92.2849C48.1288 93.2478 49.0687 94.1617 49.8993 95.1741C50.8073 96.2869 51.653 97.4511 52.6483 98.487C53.626 99.421 54.5838 100.376 55.526 101.345C53.7814 99.9573 52.0476 98.5554 50.2776 97.1983C48.6497 96.0961 47.0004 95.0226 45.3606 93.9377C43.7555 92.8548 42.1509 91.7619 40.3985 90.9352C38.8136 90.194 37.2185 89.4792 35.6282 88.7477C34.785 88.3687 33.9957 87.8689 33.1119 87.5855C27.1127 85.7778 20.7745 86.0889 14.5911 85.9385C11.2763 85.853 7.96357 85.7666 4.65338 85.5915C3.33047 85.5374 2.003 85.4173 0.691917 85.307C0.379778 85.4059 0.0626533 85.6604 0.00301097 85.9905C-0.00601619 86.0309 0.00388374 86.0705 0.030935 86.105C0.525209 86.8155 1.31527 87.2614 2.00865 87.7516C4.58287 89.5483 7.36208 92.2517 10.2641 94.0523C11.9176 94.9852 13.464 96.1666 15.2882 96.7358C17.245 97.3935 19.2712 97.7825 21.2606 98.3092C23.386 98.8378 25.4974 99.4454 27.6493 99.8456C28.9113 100.06 30.1901 100.14 31.4594 100.31C32.985 100.481 34.511 100.741 36.0506 100.699C36.8399 100.653 37.6194 100.49 38.4105 100.471C39.1735 100.398 39.9438 100.453 40.7034 100.367C44.1367 99.9237 47.0601 98.7453 50.3853 100.586C52.0141 101.401 53.4193 102.585 55.0014 103.476C56.8174 104.477 58.6136 105.516 60.3772 106.608C60.9859 106.987 61.5848 107.382 62.1828 107.774C62.63 108.143 63.0835 108.503 63.5509 108.846C65.8461 110.523 68.3329 111.912 70.9008 113.115C71.8043 113.538 72.7098 113.961 73.6334 114.341C74.4839 114.81 75.3385 115.276 76.1945 115.735C75.82 115.479 75.4476 115.222 75.0732 114.965C75.1334 114.993 75.1924 115.023 75.2526 115.051C77.397 116.335 79.5804 117.554 81.7926 118.717C81.6171 118.691 81.4386 118.664 81.2616 118.646C81.1444 118.626 81.0298 118.612 80.9123 118.598C80.2239 118.397 79.5294 118.222 78.8237 118.087C77.3764 117.785 75.8957 117.513 74.4207 117.731C73.0806 117.877 71.7666 118.172 70.4518 118.465C68.6542 118.831 66.8706 119.274 65.1677 119.964C62.7096 120.946 60.6966 122.859 59.406 125.161C58.4206 127.015 57.6958 129.002 56.8122 130.907C56.3714 131.906 55.9257 132.905 55.485 133.905C55.2927 134.341 55.1419 134.801 54.8847 135.205C54.6533 135.551 54.3437 135.834 54.0402 136.114C52.9907 136.968 51.9235 137.821 50.7572 138.512C49.8223 139.052 48.7834 139.368 47.7497 139.664C46.9476 139.88 46.1719 140.202 45.353 140.358C44.4858 140.486 43.6008 140.4 42.7321 140.307C41.8351 140.222 40.2337 139.804 39.1006 139.303C38.4364 139.058 37.8459 138.615 37.1395 138.496C36.8368 138.372 36.5103 138.46 36.2766 138.678C36.1461 138.8 36.0063 138.929 35.9517 139.104C35.8912 139.237 35.9502 139.384 35.946 139.525C35.8928 140.816 36.5672 141.948 37.2243 143.011C37.8084 144.062 38.7115 144.863 39.7046 145.515C41.1384 146.588 42.8435 147.25 44.608 147.492C47.5778 147.968 50.4395 146.77 53.0671 145.528C54.8417 144.736 56.4381 143.622 57.9055 142.35C59.3903 141.124 60.824 139.83 62.1374 138.421C64.0558 136.318 65.1286 134.793 66.8457 132.778C67.7818 131.556 68.7029 130.317 69.8208 129.252C70.5674 128.49 71.407 127.831 72.2353 127.163C73.1975 126.363 74.1749 125.576 75.2521 124.936C77.4565 123.787 78.7261 122.922 80.9587 122.056C82.2149 121.589 83.6069 121.769 85.1424 121.416C86.0847 121.801 87.0134 122.199 87.9218 122.584C88.3538 122.783 88.808 122.394 89.0114 122.033C89.1607 121.776 88.8885 121.599 88.7554 121.404C88.5231 121.108 88.2847 120.815 87.9908 120.577C87.9756 120.564 87.9583 120.552 87.9431 120.539C87.9575 120.528 87.9729 120.519 87.9854 120.509C88.2381 120.329 88.5927 119.983 88.5003 119.653C88.4853 119.596 88.4504 119.56 88.3896 119.542C88.1029 119.416 87.787 119.395 87.478 119.395C87.0962 119.417 86.6621 119.413 86.228 119.392C85.5518 118.953 84.9259 118.485 84.3741 117.714C84.0356 117.318 83.6546 116.957 83.3329 116.544C83.3162 116.523 83.3014 116.5 83.2867 116.477C83.3459 116.524 83.4019 116.575 83.462 116.625C83.361 116.52 83.2652 116.411 83.1663 116.305C82.8047 115.778 82.4742 115.228 82.1239 114.693C81.2752 113.472 80.6864 112.104 80.0779 110.752C79.6365 109.823 79.1583 108.916 78.674 108.011C78.0649 106.652 77.634 105.654 77.0646 104.219C76.7757 103.592 76.7643 102.903 76.78 102.227C76.7893 101.463 76.7937 100.7 76.8099 99.9356C76.8297 98.2109 76.9419 96.6214 77.3807 94.749C77.6988 93.467 78.1932 92.235 78.6695 91.0059C79.7102 88.3052 81.9208 86.3359 83.6517 84.0903C84.7131 82.6342 85.6811 81.1188 86.6157 79.5765C87.0491 78.8384 87.5675 78.1461 87.9409 77.3755C88.3218 76.3608 88.535 75.2824 88.6597 74.2059C88.7326 73.539 88.7845 72.8568 88.6555 72.1923C88.4617 71.2224 88.0346 70.3269 87.5721 69.4615ZM35.7708 66.737C35.0533 64.8162 34.298 62.8972 33.8391 60.8934C33.2626 58.3735 33.2443 55.7817 33.1365 53.2118C33.166 50.7527 33.1951 48.2645 33.8302 45.8761C34.0866 44.8861 34.4525 43.9314 34.8185 42.9767C35.0863 42.23 35.3622 41.4798 35.8449 40.8444C36.5746 39.9265 37.2602 38.9792 37.9152 38.0061C38.2891 37.4593 38.584 36.842 39.1 36.4113C39.6318 35.9225 40.2761 35.587 40.8544 35.1608C42.0051 34.328 43.1161 33.437 44.1225 32.4332C44.7651 31.76 45.403 31.0646 45.8661 30.2502C46.5835 28.8922 46.976 27.3807 47.3403 25.8936C47.8832 23.8714 48.2559 21.8135 48.3563 19.7179C48.4556 18.7109 48.5813 17.6924 48.9274 16.7366C49.195 16.0119 49.6536 15.3821 50.0356 14.7149C50.1468 14.4256 50.5053 14.3723 50.7783 14.417C51.5373 14.5574 51.8431 15.2621 52.0558 15.8806C52.2955 16.7502 52.2932 17.6689 52.3807 18.5608C52.5411 19.8714 52.5402 21.1886 52.4808 22.5045C52.4257 23.9865 52.4293 25.314 52.0654 26.908C51.5855 28.9248 50.7338 30.8254 49.6674 32.5928C49.1416 33.5074 48.6561 34.4483 48.0695 35.3285C47.3734 36.3851 46.4414 37.2544 45.7081 38.2809C44.9564 39.4931 44.3997 40.8154 43.7854 42.0994C42.7818 44.3678 41.7714 46.6318 40.7698 48.8993C39.4842 51.7258 38.334 54.6639 37.7667 57.7263C37.7864 54.3927 38.2723 51.0759 38.6071 47.7614C38.6676 47.1217 38.7084 46.4809 38.7591 45.8406C38.6505 46.4476 38.5428 47.0566 38.4371 47.6648C37.5968 52.0408 36.5951 56.4456 36.8559 60.9378C36.9784 63.5525 37.3957 66.1342 37.8842 68.7021C37.9015 69.2374 37.9218 69.7738 37.974 70.3062C38.1455 71.3807 38.3511 72.4501 38.5427 73.5208C37.5274 71.3032 36.6407 69.0201 35.7708 66.737ZM22.3197 34.5227C21.8393 31.445 21.5362 28.3416 20.9345 25.2849C20.6228 23.5142 20.2341 21.7501 20.0466 19.9596C19.8944 17.9444 20.0516 16.776 20.1326 14.886C20.2719 12.4182 19.9974 9.72587 20.1998 7.55928C20.4062 5.54673 21.2432 3.67925 21.707 1.72542C21.7107 1.71165 21.7135 1.69583 21.7172 1.68206C21.7747 1.78124 21.8291 1.88423 21.8764 1.98782C22.1882 2.67287 22.3715 4.2534 22.5515 5.28043C22.925 6.9318 23.197 8.6053 23.2435 10.2988C23.3619 12.5647 23.3869 14.8323 23.3046 17.0976C23.257 18.591 23.4035 20.0755 23.4275 21.567C23.5339 25.0966 22.0061 28.9847 22.2758 32.8184C22.3331 33.5627 22.3813 34.3085 22.4267 35.0532C22.3919 34.8784 22.3542 34.7025 22.3197 34.5227ZM17.366 60.1081C15.632 58.5943 14.1103 56.852 12.6418 55.0819C11.2543 53.4372 9.88149 51.7764 8.67705 49.9914C7.43312 48.1432 6.35245 46.1926 5.18856 44.295C4.65278 43.4054 4.48108 42.5086 4.23308 41.3748C3.96897 40.1093 3.78311 38.8292 3.63512 37.5473C3.55955 36.772 3.48654 35.9858 3.45722 35.2001C3.49061 35.3049 3.52514 35.4068 3.56755 35.5101C4.13623 37.0378 5.15148 38.3645 6.2516 39.5473C7.41818 40.6939 8.73595 41.6824 9.88347 42.8519C10.4267 43.4024 10.9414 44.0042 11.2995 44.696C11.7719 45.6789 12.1293 47.2374 12.501 48.5172C12.6677 49.0071 12.8263 49.5006 12.9869 49.9932C10.9519 46.9231 8.97487 43.8084 6.86023 40.7997C8.69984 44.4827 10.5405 48.1848 12.7874 51.6376C13.3655 52.4968 13.9682 53.3404 14.5988 54.1646C14.7141 54.3969 14.8346 54.6245 14.9641 54.8507C15.955 56.5166 17.2558 57.9725 18.3775 59.55C19.347 60.8381 20.3504 62.1042 21.4028 63.3271C20.0596 62.2523 18.689 61.2088 17.366 60.1081ZM50.3721 98.9635C47.7256 98.0525 44.9535 97.5976 42.227 97.0086C39.8057 96.533 37.4095 95.9369 34.9956 95.4337C34.0268 95.2163 33.057 95.0018 32.086 94.7902C32.1885 94.8261 32.2901 94.8599 32.3947 94.8949C33.6635 95.3253 34.9346 95.7498 36.2152 96.146C38.6807 96.9407 41.1693 97.6549 43.6873 98.259C44.3875 98.442 45.0925 98.6083 45.7964 98.7776C44.2697 98.9386 42.7166 99.3228 40.9953 99.5195C40.1472 99.5467 39.2999 99.559 38.4518 99.6251C37.7851 99.6807 37.1281 99.8198 36.457 99.8262C34.8141 99.8307 33.1868 99.5485 31.5563 99.3699C29.3281 99.178 27.1459 98.808 24.9883 98.2107C22.5147 97.5533 20.0221 96.9747 17.5449 96.3311C16.611 96.0547 15.6676 95.7898 14.7825 95.3754C14.0713 95.039 13.4141 94.5987 12.738 94.1984C9.4934 92.432 6.83381 89.9932 3.83629 87.6329C3.19157 87.1045 2.55787 86.7684 1.96916 86.3301C2.04639 86.3356 2.12363 86.341 2.19883 86.3473C8.18366 86.708 14.1782 86.8016 20.1688 86.875C24.4542 87.0043 28.8706 87.1571 32.9523 88.6259C35.4986 89.9187 38.1607 90.9715 40.6982 92.2827C42.2837 93.1258 43.741 94.1853 45.2451 95.1635C46.7978 96.2035 48.5572 97.2803 49.8698 98.2735C50.3239 98.6241 50.7759 98.9757 51.2268 99.3302C50.9476 99.1933 50.6647 99.0702 50.3721 98.9635ZM59.8447 104.123C58.9698 103.275 58.119 102.406 57.2985 101.506C57.1614 101.351 57.0231 101.199 56.8836 101.05C57.6021 101.71 58.3238 102.365 59.0475 103.02C59.7031 103.607 60.3599 104.191 61.0219 104.77C60.6326 104.552 60.2392 104.336 59.8447 104.123ZM82.4706 120.614C81.5553 120.809 80.6836 121.16 79.8477 121.572C78.8245 122.069 77.8296 122.615 76.8427 123.18C76.0269 123.604 75.2047 124.019 74.4473 124.545C72.1542 126.185 69.9309 127.975 68.0385 130.077C66.8323 131.449 65.9277 132.833 64.7545 134.182C63.0663 136.292 61.492 138.314 59.4792 140.127C58.078 141.367 56.6853 142.639 55.1191 143.666C53.4894 144.636 51.7426 145.426 49.9498 146.048C46.8888 147.121 43.8176 146.684 41.0884 144.925C40.3988 144.438 39.0715 143.578 38.4919 142.554C38.123 142.015 37.4615 140.824 37.3451 140.517C37.2238 140.266 37.1557 140.003 37.1148 139.736C37.4827 139.905 37.8395 140.098 38.2155 140.247C39.3591 140.717 40.5452 141.095 41.7738 141.244C42.7642 141.367 43.7784 141.472 44.7683 141.315C46.0022 141.069 47.183 140.601 48.3956 140.267C50.0466 139.775 51.5306 138.875 52.8704 137.804C54.2427 136.798 55.7309 135.719 56.3253 134.049C57.512 131.329 58.728 128.62 59.9148 125.9C61.8863 121.576 65.0235 120.49 69.3648 119.567C71.2856 119.162 73.211 118.629 75.1897 118.646C75.7653 118.682 76.3499 118.754 76.9393 118.849C73.7261 119.671 71.0088 121.831 67.9606 123.545C72.2871 121.554 75.4642 118.817 80.2205 119.725C80.4573 119.759 80.6936 119.803 80.9298 119.846C81.5956 120.061 82.2603 120.296 82.9254 120.543C82.7662 120.566 82.614 120.588 82.4706 120.614ZM87.4736 72.8585C87.7207 74.3018 87.3628 75.8373 86.9267 77.4431C86.5756 78.3428 85.9344 79.103 85.4602 79.9416C84.6272 81.3229 83.7453 82.6695 82.7962 83.9723C81.646 85.4742 80.4379 86.6702 79.1388 88.4412C78.1294 89.7555 77.4834 91.2894 76.9532 92.8509C75.9818 95.2659 75.6187 97.8747 75.6227 100.473C75.6087 101.309 75.6087 102.144 75.6025 102.981C75.5658 103.776 75.6758 104.558 76.0315 105.278C76.418 106.269 76.8353 107.22 77.2783 108.157C76.6917 107.173 76.1428 106.169 75.6503 105.134C74.8238 103.402 74.1288 101.294 73.6179 99.2199C73.0597 97.2933 72.815 95.2988 72.836 93.2986C72.8229 91.6149 73.0025 89.9304 73.3719 88.2878C72.8666 89.8288 72.5197 91.4228 72.3534 93.0381C72.1016 95.3357 72.1672 97.6635 72.7196 99.9164C73.1285 101.944 73.7295 103.947 74.6693 105.796C75.9109 108.234 77.5617 110.441 79.3409 112.51C79.4038 112.583 79.4658 112.653 79.5277 112.724C79.7782 113.267 80.0347 113.808 80.337 114.327C80.6944 114.956 81.103 115.552 81.5024 116.156C77.0199 112.076 72.8049 107.622 70.0188 102.181C69.158 100.537 68.4469 99.1706 67.9678 97.4653C67.3805 95.1375 67.4789 92.6923 68.1742 90.4092C68.9527 87.4717 69.0225 87.4877 71.9208 86.5076C73.4423 86.0008 74.9459 85.419 76.3791 84.6973C77.6321 83.7496 78.9134 82.8115 80.0221 81.6926C82.1521 79.2203 81.4046 75.6159 81.1725 72.6204C81.0609 71.6952 80.9443 70.7696 80.9046 69.8376C80.8902 69.2255 80.8643 68.5479 81.2966 68.0634C81.899 67.3419 83.1798 66.7424 83.7946 67.0014C84.3553 67.2303 84.6867 67.5709 85.2262 68.0573C85.5766 68.414 85.7682 68.8835 85.9983 69.3191C86.6182 70.6421 87.2165 71.5144 87.4736 72.8585Z" fill="white" stroke="white" stroke-width="2" mask="url(#path-1-inside-1_2334_1151)"/>
</svg>
